<?xml version="1.0" encoding="UTF-8"?>
<svg version="1.1" viewBox="0 0 2000 2000" width="500" height="500" xmlns="http://www.w3.org/2000/svg">
<path transform="translate(449,637)" d="m0 0h22l16 8 11 9 31 31 8 7 40 40 8 7 55 55 8 7 57 57 8 7 29 29 8 7 39 39 8 7 7 8 10 9 7 10 2 6 2 9v18l-3 12-4 8-17 17-4 5-7 6-5 5-11 12-5 4-7 8-20 20-5 4-7 8-11 12-5 5-10 9-5 6-5 4-7 8-15 15-1 2h-2v2l-7 5-6 8-3 1-2 4-8 7h-2l-2 5-10 9-7 8-5 6h-2l-1 3-4 2-6 8-7 6-7 8-3 1-2 4-7 6-7 8-5 4-7 9-6 5-5 5-10 11-6 5-5 6-6 5-4 5-5 4-7 8-5 4-5 6-8 4-12 3h-18l-17-5-5-5-5-6-8-7-5-5-7-8-8-7-26-26-8-7-37-37-6-5-5-6-8-7-47-47-6-5-47-47-3-2v-2l-3-1-5-6-7-6-4-5-8-7-10-9-4-5-7-6-5-6-8-7-25-25-6-5-5-5-6-7-6-16v-22l4-9 3-8 30-30 7-8 5-4 5-5 16-17 39-39 6-7 8-7 4-5 6-5 7-8 12-12h2l2-4 20-20 5-6 7-6 5-6 28-28 6-7 5 1 8 8 4 5 8 7 15 14 44 44 1 6-2 3v29l4 9 8 14 8 6 6 5 6 2 1 69 1 103v32l-9 3h-2v2l-7 6-6 10-5 8-2 6v28l6 12 7 10 6 5 4 4 9 4 16 4h11l13-4 10-3 5-5 5-3 11-19 2-5v-32l-3-6-6-8-7-8-8-7-6-3-2-191v-8l4 2 7 7 8 7 36 36 8 7 14 14 1 6-2 4v27l6 12 5 7 3 5 14 10 21 7h8l21-7 13-9 7-9 9-18v-25l-6-12-8-12-5-2-4-7-9-2-3-3-8-2h-22l-4 2-5-1-11-10-6-7-7-6-3-3-6-5-4-6-6-4-7-8-5-4-4-5-8-6-3-5-8-6-1-1-1-38-5-9-4-5-2-5-8-6-3-5-8-3-7-1-3-2h-22l-6 3-4-2-15-14-5-5-8-9-7-6-22-22-2-4-4-2-5-5-10-8-5-8 2-4 4-5 9-7 7-8 5-6 8-7 7-8 4-2 2-4h2l1-3 14-14 9-7 12-5z" fill="#8200E7"/>
<path transform="translate(1118,809)" d="m0 0h58l18 4 8 2h131l1 57-1 2-5 1-21 1-1 1-26 2h-9l5 5 8 14 4 8 5 15 4 18v19l-1 2-1 13-6 20-5 12-8 14-8 10-5 6-5 1-4 6-10 6-8 5-4 3-20 7-9 4-4 2h-19l-3 2-57 1-4-2h-23l-3 6-6 10-5 8-4 6 32 1 8 2h10l14 1 4 2 23-1 6 2 13 1h9l4 2 10-1 6 2 2 1 6-1h8l3 1 4-1 17 4 18 6 1 1 10 2 20 11 9 9 9 12 5 12 3 9 3 13v34l-1 1-1 10-5 14-4 10-4 6-6 11-17 17-17 12-9 5-14 7-5 2-7 1-18 6-17 2-7 2h-8l-9 3h-13l-7 2h-52l-5-2h-17l-6-2h-13l-4-2-12 1-15-5-7-1-20-8-16-9-12-11-7-8-7-14-4-13v-26l3-12 8-16 9-11 4-5 7-5 2-3v-5l-12-11-8-8-4-7v-37l5-10 13-16 5-6 7-6 4-6 8-7 9-8 5-4-1-5-17-12-13-13-6-10-8-11-5-16-6-18v-47l1-1 2-11 5-12 2-9 8-15 5-8 9-11 9-9 11-8 5-4 16-8 11-4 24-8 10-2zm9 70-14 4-3 2-8 2-9 7-5 5-6 10-5 13-2 8v22l9 24 10 10 11 7 3 2 13 1 3 2h31l5-3h7l12-8 9-7 7-9 7-14v-38l-6-12-7-10-9-7-4-4-11-4-10-3zm-59 317-5 5-2 6-7 8-2 5v24l6 7 11 7 12 6 19 1 2 1h70l1-3h19l14-6 10-6 6-7 4-7v-16l-4-8-8-4-16-4h-14l-3-2-24-1-2-1-26-1-2-2h-54l-2-2z" fill="#8200E7"/>
<path transform="translate(1651,691)" d="m0 0h63l1 5v100l3-1 66-1h34l2 1v70l-1 1-70 1h-33l1 58 1 91 1 38 4 13 4 8 10 8 6 2 12 1 32-1 27-9 7-2 4 16 6 18 3 6 1 9 4 9v6l-16 8-12 5-11 3-19 6-4 1h-8l-7 2h-7l-6 2-52 1-3-2h-8l-4-2h-9l-11-4-7-4-12-7-10-9-11-18-4-7-2-6-2-13-3-13-1-57-1-100-1-52-1-4h-50l-1-1-1-59 1-2 26-7 18-8 13-9 7-8 7-11 6-12 9-29 3-16v-14z" fill="#8200E7"/>
<path transform="translate(1498,806)" d="m0 0h17l2 5 1 172 1 121 20 4 21 1 5 1 1 55-1 2-57 1-101 1h-39l-2-2-1-55 1-1 22-1 18-4 5-4v-92l-1-91-1-36-4-4-13-5-5-2-4 1-13-6-6-3v-9l3-19 3-28 30-1z" fill="#8200E7"/>
<path transform="translate(1437,628)" d="m0 0h30l13 3 12 5 11 9 9 14 3 9v46l-5 10-10 14-9 6-10 5-13 4h-29l-11-3-10-5-10-6-10-11-8-23v-30l4-13 3-9 9-10 8-7 8-3 10-4z" fill="#8200E7"/>
</svg>
